<svg width="1440" height="1090" viewBox="0 0 1440 1090" fill="none" xmlns="http://www.w3.org/2000/svg">
<path d="M1225.64 371.558L1225.57 371.063L1225.64 371.558C1408.64 345.859 1556.76 484.979 1556.4 682.378C1556.04 879.818 1407.22 1060.89 1224.16 1086.47C1041.17 1112.04 893.041 973.015 893.401 775.617C893.761 578.177 1042.58 397.234 1225.64 371.558Z" stroke="#E4E4E4"/>
<path d="M749.66 178.558L749.73 178.063L749.66 178.558C566.944 152.859 419.042 291.978 419.401 489.378C419.76 686.819 568.356 867.891 751.14 893.469C933.857 919.037 1081.76 780.016 1081.4 582.617C1081.04 385.176 932.445 204.234 749.66 178.558Z" stroke="#E4E4E4"/>
<path d="M633.221 313.342L633.662 313.106L633.221 313.342C720.487 476.117 641.005 663.098 455.581 730.924C270.117 798.765 48.7918 721.698 -38.3837 558.818C-125.527 395.998 -46.1366 209.05 139.288 141.224C324.751 73.3834 545.953 150.496 633.221 313.342Z" stroke="#E4E4E4"/>
</svg>